<?xml version="1.0" encoding="UTF-8"?>
<svg id="Layer_1" data-name="Layer 1" xmlns="http://www.w3.org/2000/svg" viewBox="0 0 2537.12 1080">
  <defs>
    <style>
      .cls-1 {
        fill: #055ed7;
      }

      .cls-2 {
        fill: #67a4f1;
      }
    </style>
  </defs>
  <g>
    <g>
      <path class="cls-2" d="M776.95,391.39c-124.88,0-212.16,100.9-212.16,223.38v1.63c0,131.29,95.27,221.79,224.19,221.79,73.21,0,128.65-27.04,168.28-71.75,3.99-4.51,3.59-11.41-.92-15.4l-54.46-48.18c-4.07-3.6-10.18-3.62-14.29-.07-30.79,26.62-59.08,37.68-97.03,37.68-49.54,0-85.82-23.84-101.01-69.77-2.32-7.02,2.94-14.29,10.34-14.29h274.37c5.69,0,10.41-4.4,10.83-10.07.48-6.39.83-12.28.83-20.35v-1.59c0-121.7-65.66-233-208.98-233ZM697.55,580.35c-7.13,0-12.32-6.77-10.52-13.67,12.38-47.43,43.75-77.61,89.91-77.61s77.79,30.93,88.17,78c1.5,6.8-3.65,13.28-10.61,13.28h-156.95Z"/>
      <path class="cls-2" d="M1173.62,650.75l-51.9-78.6c-2.69-4.07-2.25-9.46,1.06-13.05l23.02-24.95c1.81-1.96,2.81-4.53,2.81-7.2V251.97c0-5.86-4.75-10.61-10.61-10.61h-100.47c-5.86,0-10.61,4.75-10.61,10.61v563.26c0,5.86,4.75,10.61,10.61,10.61h100.47c5.86,0,10.61-4.75,10.61-10.61v-115.67c0-2.72,1.04-5.33,2.91-7.3l28.43-29.98c.42-.44.48-1.11.15-1.62l-6.48-9.92Z"/>
      <path class="cls-1" d="M1226.81,481.18l70.08-76.76c3.56-3.9,8.6-6.12,13.88-6.12l132.64.78c1.53,0,2.3,1.84,1.24,2.94l-158.53,164.74c-.73.76-.84,1.92-.27,2.8l148.6,228.89c8.12,12.5-.86,29.03-15.76,29.03h-93.92c-6.41,0-12.38-3.27-15.84-8.67l-106.52-166.68-47.79-71.56c-4.76-7.21-3.99-16.74,1.87-23.09l3.46-3.75,66.85-72.54Z"/>
      <path class="cls-2" d="M1653.47,393.8c-70.6,0-116.41,12.8-162.17,32.52-2.47,1.06-3.72,3.86-2.88,6.41l27.28,83.27c.91,2.79,3.97,4.24,6.73,3.25,37.04-13.31,69.02-21.37,113.42-21.37,60.85,0,92.09,28.02,92.09,78.47h0c0,3.51-3.42,6.04-6.76,4.96-28.34-9.2-58.1-15.36-98.13-15.36-101.68,0-172.93,43.23-172.93,136.92v1.59c0,84.87,66.44,131.33,147.32,131.33,53.56,0,92.07-17.66,120.84-45.3,3.33-3.2,8.86-.94,8.86,3.69v28.38c0,2.87,2.33,5.2,5.2,5.2h107.3c2.87,0,5.2-2.33,5.2-5.2v-243.79c0-116.11-58.45-184.96-191.36-184.96ZM1729.53,676.44c0,44.05-38.42,75.25-95.27,75.25-39.23,0-66.48-19.21-66.48-52.04v-1.59c0-38.42,32.06-59.26,84.1-59.26,28.17,0,54.2,5.8,74.58,14.65,1.89.82,3.08,2.71,3.08,4.77v18.23Z"/>
      <path class="cls-2" d="M2014.73,457.89v-52.07c0-3.56-2.88-6.44-6.44-6.44h-108.86c-3.56,0-6.44,2.88-6.44,6.44v416.3c0,3.56,2.88,6.44,6.44,6.44h108.86c3.56,0,6.44-2.88,6.44-6.44v-152.09c0-102.49,49.64-151.35,130.47-151.35h0c3.56,0,6.44-2.88,6.44-6.44v-114.58c0-3.49-2.78-6.41-6.27-6.45-57.79-.65-94.22,26.53-118.63,69.9-3.23,5.74-12.01,3.37-12.01-3.22Z"/>
      <path class="cls-2" d="M2470.3,509.72v-111.81c0-4.41-3.58-7.99-7.99-7.99h-84.92c-4.41,0-7.99-3.58-7.99-7.99v-84.22c0-4.41-3.58-7.99-7.99-7.99h-105.72c-4.41,0-7.99,3.58-7.99,7.99v84.22c0,4.41-3.58,7.99-7.99,7.99h-35.24c-4.41,0-7.99,3.58-7.99,7.99v111.81c0,4.41,3.58,7.99,7.99,7.99h35.24c4.41,0,7.99,3.58,7.99,7.99v181.16c0,99.27,50.45,128.92,124.92,128.92,38.72,0,67.35-8.66,92.08-22.52,2.5-1.4,4.01-4.08,4.01-6.94v-80.33c0-5.72-5.83-9.58-11.09-7.34-14.8,6.3-31.13,9.84-48.98,9.84-27.2,0-39.23-13.62-39.23-41.64v-161.13c0-4.41,3.58-7.99,7.99-7.99h84.92c4.41,0,7.99-3.58,7.99-7.99Z"/>
    </g>
    <path class="cls-2" d="M199.07,633.99c4.01,2.33,6.55,6.55,6.55,11.18v4.87s-.04,0-.04,0v175.66c0,2.03-1.64,3.67-3.67,3.67h-115.99c-2.03,0-3.67-1.64-3.67-3.67v-267.91c0-3.9,2.5-7.27,6.14-8.68.73-.29,1.45-.6,2.17-.94,1.28-.62,2.52-1.32,3.65-2.06h0c4.22-2.78,9.82-1.6,12.71,2.54,24.74,35.44,56.11,64.44,92.16,85.33Z"/>
    <path class="cls-2" d="M92.21,344.18c-5.39-1.73-9.04-6.74-9.04-12.4v-49.86c0-7.19,5.83-13.02,13.02-13.02h247c104.04,0,175.3,43.16,200.95,117.86,1.28,3.69,2.41,7.49,3.42,11.37.31.97.54,1.9.78,2.87.93,3.49,1.67,6.99,2.37,10.67,1.16,5.74,2.02,11.64,2.68,17.74.82,7.88,1.24,16.03,1.24,24.41v1.63c0,84.06-42.22,139.09-105.4,167.65-4.35,2.02-8.81,3.84-13.35,5.55-.43.19-.89.35-1.4.54l4.15,6.05,29.3,42.81,93.27,143.69c2.13,3.29-.23,7.63-4.14,7.63h-127.16c-1.65,0-3.19-.82-4.11-2.2l-7.81-11.7-89.84-140.52-4.54-7.1-6.83-10.67-.74-3.3-52.75-79.98c-1.25-1.9-1.05-4.4.49-6.07l26.72-28.94.89-.47,43.62,2.7c.13,0,.26.01.39.01,59.92-.07,94.3-32.15,94.3-79.28v-1.63c0-16.69-3.65-30.77-10.59-42.3-2.52-4.19-5.39-8.03-8.77-11.53-3.22-3.38-6.83-6.44-10.87-9.2-16.45-11.33-39.08-17.04-66.67-17.04l-64.4-1.49c-31.06-.72-61.93-5.12-91.95-13.11l-84.22-21.39Z"/>
  </g>
  <path class="cls-1" d="M237.47,567.71c-.52.58-.58,1.45-.15,2.1l2.21,3.32,44.55,67.53c1.63,2.48-.61,5.67-3.5,5-3.62-.84-7.23-1.77-10.82-2.76-4.46-1.24-8.85-2.6-13.16-4.07-13.39-4.46-26.2-9.97-38.38-16.38-46.69-24.6-84.37-62.64-110.29-108.59l-24.41,16.03c-.43.27-.85.54-1.28.7-7.72,3.88-16.42-2.48-15.33-11.88l15.33-134.7.16-1.24c.93-8.11,8.81-13.31,15.72-10.32l107.46,46.69,7.57,3.26c8.42,3.65,8.93,16.26.89,21.54l-8.46,5.59-23.32,15.37c7.02,9.08,14.82,17.62,23.32,25.5,17.72,16.55,38.61,30.48,61.96,40.72,1.08.48,1.38,1.86.57,2.73l-6.88,7.32-23.76,26.56Z"/>
</svg>